<svg width="470" height="120" viewBox="0 0 470 120" fill="none" xmlns="http://www.w3.org/2000/svg">
<path d="M89.78 5.34273H111L65.6243 117.306H45.5484L0 5.34273H21.8676L55.8238 91.8342L89.78 5.34273Z" fill="#FFF"/>
<path d="M106.122 117.306H86L131.733 5.34273H153L106.122 117.306Z" fill="#FF4841"/>
<path d="M242.075 4.89896H261.31V117.359H242.075V69.9266H186.968V117.359H167.571V4.89896H186.968V51.6717H242.075V4.89896Z" fill="#FFF"/>
<path d="M341.525 34.228H359.786V117.348H341.525V106.263C335.164 114.904 326.358 119.306 314.945 119.306C305.328 119.306 297.658 116.375 291.795 110.503C286.094 104.63 283.151 96.8115 283.151 87.1974V34.228H301.423V81.8226C301.423 93.7186 309.082 101.71 320.819 101.71C333.206 101.71 341.525 93.7294 341.525 81.4982V34.228Z" fill="#FFF"/>
<path d="M458.262 44.8262C466.084 53.1425 470 63.4055 470 75.7881C470 88.1707 466.084 98.6067 458.262 106.912C450.441 115.218 440.651 119.306 429.075 119.306C416.851 119.306 407.061 114.418 399.726 104.479V117.359H381.476V0H399.737V47.0972C407.072 37.1587 416.851 32.2705 429.086 32.2705C440.651 32.2705 450.43 36.5098 458.262 44.8262ZM425.495 101.7C432.829 101.7 438.866 99.2556 443.755 94.3674C448.645 89.3171 451.09 83.1203 451.09 75.7881C451.09 68.4559 448.645 62.2591 443.755 57.371C438.866 52.3206 432.829 49.8765 425.495 49.8765C418.16 49.8765 412.124 52.3206 407.072 57.371C402.182 62.2591 399.737 68.4559 399.737 75.7881C399.737 83.1203 402.182 89.3171 407.072 94.3674C412.124 99.2556 418.16 101.7 425.495 101.7Z" fill="#FFF"/>
</svg>
